<svg width="27" height="27" viewBox="0 0 27 27" fill="none" xmlns="http://www.w3.org/2000/svg">
<mask id="mask0_1_229" style="mask-type:alpha" maskUnits="userSpaceOnUse" x="0" y="0" width="27" height="27">
<circle cx="13.5" cy="13.4004" r="13.125" fill="url(#paint0_radial_1_229)" fill-opacity="0.01"/>
</mask>
<g mask="url(#mask0_1_229)">
<g filter="url(#filter0_b_1_229)">
<circle cx="13.5" cy="13.4004" r="13.125" fill="#AAE496"/>
</g>
<g filter="url(#filter1_f_1_229)">
<ellipse cx="12.0417" cy="11.8594" rx="11.6667" ry="11.4844" fill="url(#paint1_radial_1_229)"/>
</g>
<g filter="url(#filter2_f_1_229)">
<path d="M23.8082 14.0234C25.3507 14.1166 26.5545 15.4583 26.137 16.9461C25.5776 18.9396 24.5506 20.7859 23.125 22.3237C21.0605 24.5505 18.2878 25.9926 15.2793 26.4042C12.2708 26.8159 9.21267 26.1716 6.62591 24.5813C4.03915 22.9909 2.08385 20.5529 1.09317 17.6825C0.102489 14.8121 0.137722 11.687 1.19287 8.83967C2.24801 5.99235 4.25779 3.59898 6.87974 2.06735C9.5017 0.535717 12.5736 -0.0394014 15.5721 0.439985C17.6427 0.771038 19.5899 1.59083 21.2598 2.81496C22.5061 3.72855 22.3861 5.52712 21.2295 6.5519V6.5519C20.0729 7.57667 18.3123 7.4074 16.9375 6.70188C16.2364 6.34212 15.4782 6.09201 14.6886 5.96578C12.9686 5.69079 11.2064 6.0207 9.70236 6.8993C8.1983 7.77791 7.04541 9.15084 6.44014 10.7842C5.83486 12.4175 5.81465 14.2102 6.38295 15.8568C6.95124 17.5033 8.07288 18.9019 9.55675 19.8142C11.0406 20.7265 12.7949 21.096 14.5207 20.8599C16.2465 20.6238 17.837 19.7965 19.0213 18.5191C19.5649 17.9328 20.0074 17.2682 20.3373 16.5527C20.9843 15.1493 22.2657 13.9301 23.8082 14.0234V14.0234Z" fill="url(#paint2_angular_1_229)"/>
</g>
<circle cx="13.5" cy="13.4004" r="13.125" fill="url(#paint3_radial_1_229)"/>
</g>
<defs>
<filter id="filter0_b_1_229" x="-21.625" y="-21.7246" width="70.25" height="70.25" filterUnits="userSpaceOnUse" color-interpolation-filters="sRGB">
<feFlood flood-opacity="0" result="BackgroundImageFix"/>
<feGaussianBlur in="BackgroundImage" stdDeviation="11"/>
<feComposite in2="SourceAlpha" operator="in" result="effect1_backgroundBlur_1_229"/>
<feBlend mode="normal" in="SourceGraphic" in2="effect1_backgroundBlur_1_229" result="shape"/>
</filter>
<filter id="filter1_f_1_229" x="-7.625" y="-7.625" width="39.3333" height="38.9688" filterUnits="userSpaceOnUse" color-interpolation-filters="sRGB">
<feFlood flood-opacity="0" result="BackgroundImageFix"/>
<feBlend mode="normal" in="SourceGraphic" in2="BackgroundImageFix" result="shape"/>
<feGaussianBlur stdDeviation="4" result="effect1_foregroundBlur_1_229"/>
</filter>
<filter id="filter2_f_1_229" x="-14.625" y="-14.7246" width="55.8456" height="56.25" filterUnits="userSpaceOnUse" color-interpolation-filters="sRGB">
<feFlood flood-opacity="0" result="BackgroundImageFix"/>
<feBlend mode="normal" in="SourceGraphic" in2="BackgroundImageFix" result="shape"/>
<feGaussianBlur stdDeviation="7.5" result="effect1_foregroundBlur_1_229"/>
</filter>
<radialGradient id="paint0_radial_1_229" cx="0" cy="0" r="1" gradientUnits="userSpaceOnUse" gradientTransform="translate(13.5 13.4004) rotate(90) scale(13.125)">
<stop stop-color="#97FF83"/>
<stop offset="1" stop-color="#FBFBFB"/>
</radialGradient>
<radialGradient id="paint1_radial_1_229" cx="0" cy="0" r="1" gradientUnits="userSpaceOnUse" gradientTransform="translate(8.98156 9.03535) rotate(66.4372) scale(7.65499 7.76595)">
<stop stop-color="#CAC7FF"/>
<stop offset="1" stop-color="#BFCE13"/>
</radialGradient>
<radialGradient id="paint2_angular_1_229" cx="0" cy="0" r="1" gradientUnits="userSpaceOnUse" gradientTransform="translate(13.5 13.4004) rotate(0.434889) scale(13.1254 13.225)">
<stop stop-color="#09E2FF"/>
<stop offset="0.746532" stop-color="#0038FF" stop-opacity="0"/>
<stop offset="1" stop-color="white" stop-opacity="0"/>
</radialGradient>
<radialGradient id="paint3_radial_1_229" cx="0" cy="0" r="1" gradientUnits="userSpaceOnUse" gradientTransform="translate(7.84897 7.84897) rotate(42.6559) scale(22.0603 20.0363)">
<stop offset="0.819529" stop-color="white" stop-opacity="0"/>
<stop offset="1" stop-color="white"/>
</radialGradient>
</defs>
</svg>
