<svg width="27" height="27" fill="none" xmlns="http://www.w3.org/2000/svg"><mask id="b" style="mask-type:alpha" maskUnits="userSpaceOnUse" x="0" y="0" width="27" height="27"><circle cx="13.5" cy="13.4" r="13.125" fill="url(#a)" fill-opacity=".01"/></mask><g mask="url(#b)"><g filter="url(#c)"><circle cx="13.5" cy="13.4" r="13.125" fill="#AAE496"/></g><g filter="url(#d)"><ellipse cx="12.042" cy="11.859" rx="11.667" ry="11.484" fill="url(#e)"/></g><g filter="url(#f)"><path d="M23.808 14.023c1.543.094 2.747 1.435 2.329 2.923A13.126 13.126 0 1 1 21.26 2.815c1.246.914 1.126 2.712-.03 3.737-1.157 1.025-2.918.855-4.293.15a7.528 7.528 0 1 0 3.4 9.85c.647-1.403 1.929-2.622 3.471-2.529Z" fill="url(#g)"/></g><circle cx="13.5" cy="13.4" r="13.125" fill="url(#h)"/></g><defs><radialGradient id="a" cx="0" cy="0" r="1" gradientUnits="userSpaceOnUse" gradientTransform="rotate(90 .05 13.45) scale(13.125)"><stop stop-color="#97FF83"/><stop offset="1" stop-color="#FBFBFB"/></radialGradient><radialGradient id="e" cx="0" cy="0" r="1" gradientUnits="userSpaceOnUse" gradientTransform="matrix(3.06011 7.01674 -7.11844 3.10447 8.982 9.035)"><stop stop-color="#CAC7FF"/><stop offset="1" stop-color="#BFCE13"/></radialGradient><radialGradient id="g" cx="0" cy="0" r="1" gradientUnits="userSpaceOnUse" gradientTransform="matrix(13.12502 .09962 -.10038 13.22462 13.5 13.4)"><stop stop-color="#09E2FF"/><stop offset=".747" stop-color="#0038FF" stop-opacity="0"/><stop offset="1" stop-color="#fff" stop-opacity="0"/></radialGradient><radialGradient id="h" cx="0" cy="0" r="1" gradientUnits="userSpaceOnUse" gradientTransform="rotate(42.656 -6.127 13.976) scale(22.0603 20.0363)"><stop offset=".82" stop-color="#fff" stop-opacity="0"/><stop offset="1" stop-color="#fff"/></radialGradient><filter id="c" x="-21.625" y="-21.725" width="70.25" height="70.25" filterUnits="userSpaceOnUse" color-interpolation-filters="sRGB"><feFlood flood-opacity="0" result="BackgroundImageFix"/><feGaussianBlur in="BackgroundImage" stdDeviation="11"/><feComposite in2="SourceAlpha" operator="in" result="effect1_backgroundBlur_1_229"/><feBlend in="SourceGraphic" in2="effect1_backgroundBlur_1_229" result="shape"/></filter><filter id="d" x="-7.625" y="-7.625" width="39.333" height="38.969" filterUnits="userSpaceOnUse" color-interpolation-filters="sRGB"><feFlood flood-opacity="0" result="BackgroundImageFix"/><feBlend in="SourceGraphic" in2="BackgroundImageFix" result="shape"/><feGaussianBlur stdDeviation="4" result="effect1_foregroundBlur_1_229"/></filter><filter id="f" x="-14.625" y="-14.725" width="55.846" height="56.25" filterUnits="userSpaceOnUse" color-interpolation-filters="sRGB"><feFlood flood-opacity="0" result="BackgroundImageFix"/><feBlend in="SourceGraphic" in2="BackgroundImageFix" result="shape"/><feGaussianBlur stdDeviation="7.5" result="effect1_foregroundBlur_1_229"/></filter></defs></svg>